# xmcd
#
# Track frame offsets:
#	150
#	17681
#	36558
#	54791
#	72742
#	89262
#	105702
#	120190
#	135621
#	153876
#
# Disc length: 2242 seconds
#
# Revision: 2
# Processed by: cddbd v1.5.2PL0 Copyright (c) Steve Scherf et al.
# Submitted via: audiograbber 1.83.01
#
DISCID=7c08c00a
DTITLE=Daniela Romo - Gitana
DYEAR=1987
DGENRE=Latin
TTITLE0=Es Mejor Perdonar
TTITLE1=Diez Minutos De Amor
TTITLE2=Lo Que Las Mujeres Callamos
TTITLE3=Tanto Esperar Por Ti
TTITLE4=Gitana
TTITLE5=Hay Un Sitio Libre En Mi Corazon (A Dueto Con Mijares)
TTITLE6=Ese Momento
TTITLE7=El Poder Del Amor
TTITLE8=El Diablo En Mi Tejado
TTITLE9=Cuando Empieza Un Amor
EXTD=
EXTT0=
EXTT1=
EXTT2=
EXTT3=
EXTT4=
EXTT5=
EXTT6=
EXTT7=
EXTT8=
EXTT9=
PLAYORDER=
